<svg xmlns="http://www.w3.org/2000/svg" xml:space="preserve" width="1em" height="1em" viewBox="0 0 827 827" xmlns:xlink="http://www.w3.org/1999/xlink"><defs><style type="text/css"><![CDATA[.fil1 {fill:darkgray;}]]>  </style></defs><g transform="matrix(0.983406 0 0 1 -50.6456 -2.00487)"><text x="413.5" y="413.5" id="_110500896" class="fil0 fnt0"> </text></g><g><polygon id="_113080104" class="fil1" points="205.94,180.234 372.979,723.046 287.874,745.81 120.834,202.998 "/></g><g><path class="fil1" d="M313.243 102.322l5.90478 82.9268 -0.17367 0 -2.1691 0.216201 -2.18564 0.276454 -2.20218 0.490293 -2.56488 0.53755 -2.75391 0.738393 -2.76809 0.771473 -2.95475 1.11999 -3.1426 1.30075 -3.32808 1.31139 -3.3399 1.63864 -3.5242 1.79813 -3.53365 1.7875 -3.71914 2.09349 -3.72741 2.23172 -3.91053 2.52589 -4.09129 2.48454 -3.92589 2.76572 -4.10665 2.7102 -4.11137 2.97602 -4.29213 3.07053 -4.122 3.15678 -4.3004 3.40133 -4.47761 3.31154 -4.30749 3.54192 -4.48234 3.59981 -4.31103 3.65298 -4.48588 3.69787 -4.66074 3.7345 -4.48588 3.76758 -4.48588 3.95306 -4.65719 3.9696 -4.65601 3.81601 -59.7472 -61.1389 4.65601 -4.14209 4.65719 -3.9696 4.83322 -3.95306 4.83322 -4.09129 4.66074 -4.06057 4.83322 -4.02395 5.00571 -3.97669 4.82968 -3.92589 5.00217 -3.86563 4.82495 -3.96369 4.99508 -3.72504 5.16402 -3.80893 4.98681 -3.72032 5.15339 -3.6258 5.14867 -3.68606 5.31525 -3.41551 5.13331 -3.4604 5.29989 -3.17568 5.46411 -3.20758 5.45584 -3.06935 5.62006 -3.08944 5.60824 -2.77399 5.77128 -2.6145 5.75946 -2.61096 5.92132 -2.27661 6.08081 -2.09585 6.24149 -2.07104 6.22731 -1.71425 6.38562 -1.51341 6.7176 -1.14244 6.70343 -0.92624 6.68452 -0.539913 -0.17367 0zm5.73111 82.9268l-5.55744 -82.9268 2.28252 -0.0803371 2.26007 0.0283543 2.23408 0.133501 2.20573 0.236286 2.17383 0.337889 2.13957 0.434766 2.10058 0.531643 2.06159 0.623794 2.01788 0.714764 1.97062 0.804553 1.92218 0.888434 1.86902 0.973497 1.81349 1.05383 1.7556 1.13299 1.69417 1.2086 1.63037 1.28303 1.56303 1.35392 1.49333 1.42244 1.42008 1.4886 1.34328 1.55358 1.26531 1.61501 1.18261 1.6729 1.09755 1.73079 1.01012 1.78514 0.919151 1.83594 0.825819 1.88556 0.72776 1.93282 0.629701 1.97653 0.525736 2.01906 0.420589 2.05805 0.311897 2.09585 0.200843 2.13012 0.0850629 2.1372 -0.0295357 2.11594 -0.142953 2.09113 -0.252826 2.06514 -0.360336 2.03442 -0.464301 2.00252 -0.567086 1.96708 -0.667507 1.93045 -0.763203 1.88792 -0.858899 1.84539 -0.949869 1.79932 -1.03966 1.7497 -1.1259 1.69889 -1.20978 1.64337 -1.2913 1.58548 -1.36928 1.52641 -1.44607 1.46379 -1.5205 1.39763 -1.5902 1.32911 -1.65873 1.25822 -1.72489 1.18379 -1.7875 1.107 -1.84894 1.02784 -1.90564 0.946324 -1.96117 0.86008 -2.01434 0.772654 -2.06396 0.682866 -2.11239 0.588351 -2.15611 0.492656 -2.19864 0.394597 -2.23881 0.291813 -2.27543 0.187847zm138.735 -13.0843l-7.64148 82.9268 0 0 -8.33025 -1.05502 -7.9262 -1.57366 -7.52806 -2.06396 -7.30477 -2.53062 -6.73769 -2.80944 -6.5203 -3.06344 -6.13516 -3.1296 -5.75001 -3.33281 -5.54326 -3.51239 -5.16402 -3.50412 -5.13685 -3.46986 -4.76588 -3.57382 -4.74344 -3.4923 -4.37837 -3.38243 -4.36302 -3.41197 -4.17753 -3.25365 -3.99323 -3.07053 -3.9885 -3.02564 -3.63762 -2.62868 -3.46513 -2.69484 -3.46749 -2.25062 -3.12606 -2.10531 -2.96184 -1.77214 -2.6275 -1.57603 -2.29315 -1.19324 -2.13957 -0.948687 -1.641 -0.67814 -1.31729 -0.382783 -0.824637 -0.225653 -0.506833 -0.0425314 -0.193754 -0.160674 -0.23156 0.0720671 -5.90478 -82.9268 8.56772 -0.0720671 8.52991 0.484386 8.15068 1.34447 7.77144 1.8513 7.22207 2.3345 6.8511 2.6275 6.30765 2.90041 6.11626 3.14496 5.75356 3.20167 5.39322 3.39779 5.2101 3.40724 4.85685 3.55019 4.85449 3.34699 4.67964 3.60454 4.33584 3.34935 4.34057 3.39661 4.17753 3.25365 4.01568 3.08589 4.03103 3.05872 3.70142 2.84015 3.72386 2.59796 3.40015 2.49636 3.42732 2.20218 3.11188 1.88674 2.97129 1.70716 2.6594 1.50396 2.35222 1.11172 2.22227 0.857717 1.74733 0.5789 1.62328 0.43831 1.32674 0.271729 1.03375 0.0815186 0 0zm-7.64148 82.9268l7.64148 -82.9268 2.27425 0.237467 2.23408 0.342614 2.19273 0.441854 2.14666 0.541094 2.10058 0.63679 2.04978 0.72776 1.9978 0.81873 1.94345 0.904974 1.88556 0.988856 1.82531 1.06919 1.76269 1.14835 1.69771 1.22396 1.62919 1.29603 1.55949 1.36573 1.48742 1.43307 1.41181 1.49805 1.33383 1.5583 1.2535 1.61738 1.16961 1.67172 1.08573 1.72607 0.997126 1.77451 0.906156 1.82294 0.812823 1.86666 0.718309 1.90801 0.619069 1.94699 0.518647 1.98362 0.415863 2.01552 0.309534 2.04623 0.202024 2.07341 0.0897886 2.09704 -0.0224471 2.11948 -0.139409 2.13839 -0.254007 2.12893 -0.365061 2.09231 -0.472571 2.05214 -0.577719 2.00961 -0.679321 1.9659 -0.778561 1.91982 -0.874257 1.8702 -0.966409 1.8194 -1.0562 1.76387 -1.14244 1.70953 -1.22632 1.65046 -1.30666 1.58902 -1.38463 1.52522 -1.46025 1.46025 -1.52995 1.3929 -1.59965 1.32084 -1.66463 1.24877 -1.72725 1.17316 -1.78632 1.09637 -1.84303 1.01603 -1.89619 0.933329 -1.94699 0.848266 -1.99425 0.762021 -2.03796 0.671051 -2.07931 0.580081 -2.1183 0.485567 -2.15256 0.389871 -2.18564 0.28945 -2.21518 0.189029 -2.23999 0.0838814 -2.2648 -0.0212657 -2.2837 -0.129957zm175.878 -126.04l-13.8936 81.9533 5.24082 0.362699 2.56134 0.00827 0.251644 -0.0437129 -0.822274 0.211476 -2.04623 0.44658 -2.72792 0.824637 -3.38597 1.01957 -4.02276 1.35628 -4.28977 1.51223 -4.70799 1.64809 -5.10495 1.92691 -5.30461 2.02261 -5.65668 1.93518 -5.98748 2.31796 -5.94613 2.19037 -6.23204 2.20691 -6.49549 2.3664 -6.56284 2.34395 -6.60773 2.13839 -6.80385 2.23763 -6.80503 2.31796 -6.95625 2.05214 -6.91372 1.93045 -7.19372 1.95054 -7.10629 1.62565 -7.17009 1.60674 -7.21026 1.24286 -7.40401 1.18261 -7.40047 0.779743 -7.54815 0.517466 -7.67456 0.07443 -7.95101 -0.226834 7.64148 -82.9268 1.69889 0.226834 2.46446 -0.07443 3.03273 -0.193754 3.57973 -0.453669 3.92825 -0.532824 4.43154 -0.916789 4.73871 -0.956957 5.02225 -1.29957 5.10968 -1.30075 5.52436 -1.60438 5.56689 -1.72843 5.76301 -1.66818 5.76183 -1.91155 5.91305 -2.13839 5.86816 -2.01788 5.80081 -2.04269 5.8847 -2.20691 5.94613 -2.19037 5.64014 -1.99189 5.65668 -2.26125 5.65195 -2.02261 5.45229 -1.92691 5.40267 -1.9718 5.33179 -1.8383 5.06478 -1.68235 5.12267 -1.66936 5.1593 -1.47442 5.17229 -1.42244 5.68503 -1.18734 6.00284 -0.932147 7.51152 -0.331981 9.34746 0.610799z"/></g><g><path class="fil1" d="M389.275 332.735l5.90478 82.9268 0 0 -2.15611 0.229197 -2.17265 0.287087 -2.3664 0.337889 -2.55661 0.707676 -2.57197 0.745481 -2.93585 0.776199 -2.95003 1.12472 -3.13787 1.30312 -3.32454 1.31375 -3.33754 1.641 -3.52184 1.79813 -3.53365 1.78514 -3.71796 2.09349 -3.90108 2.39239 -3.73568 2.35931 -4.09247 2.48218 -3.92471 2.76218 -4.10665 2.70665 -4.11137 2.97129 -4.29095 3.06581 -4.122 3.15205 -4.29804 3.39779 -4.47643 3.30682 -4.30394 3.5372 -4.47998 3.59627 -4.30631 3.64943 -4.47998 3.69315 -4.47998 3.73213 -4.65247 3.76403 -4.47525 3.95188 -4.64774 3.8042 -4.64301 3.97905 -59.7472 -61.1389 4.64301 -3.97905 4.64774 -4.13027 4.82259 -3.95188 4.65247 -4.08774 4.82732 -4.05821 4.82732 -4.01922 5.00099 -3.97314 4.82732 -3.92234 4.99862 -3.86091 4.82377 -3.95897 4.99272 -3.7215 5.16402 -3.8042 4.98563 -3.71559 5.15339 -3.62108 5.14867 -3.68251 5.31407 -3.41197 5.13449 -3.45804 5.47238 -3.33517 5.29044 -3.04218 5.45466 -3.06935 5.62006 -3.08707 5.60588 -2.77399 5.76892 -2.61686 5.75592 -2.61332 5.91659 -2.27898 6.07609 -2.10058 6.06191 -2.07577 6.39271 -1.72134 6.37735 -1.35982 6.53448 -1.31375 6.69043 -0.936873 6.67153 -0.552909 0 0zm5.90478 82.9268l-5.90478 -82.9268 2.28252 -0.0886071 2.26125 0.0200843 2.23526 0.125231 2.20691 0.229197 2.17619 0.328437 2.14075 0.427677 2.10412 0.523373 2.06396 0.616706 2.02142 0.708857 1.97535 0.796283 1.92573 0.882527 1.87375 0.966409 1.81822 1.04793 1.76151 1.1259 1.69889 1.20269 1.63628 1.27712 1.56894 1.34919 1.49923 1.41771 1.42598 1.48387 1.35037 1.54885 1.2724 1.61029 1.1897 1.66936 1.10582 1.72725 1.01721 1.78041 0.927421 1.83358 0.834089 1.8832 0.73603 1.93045 0.637971 1.97535 0.535187 2.0167 0.428859 2.05805 0.321349 2.09467 0.209113 2.13012 0.0945143 2.1372 -0.0212657 2.11594 -0.133501 2.09349 -0.244556 2.06514 -0.352066 2.03678 -0.456031 2.00488 -0.559997 1.97062 -0.658056 1.93164 -0.756114 1.89265 -0.85181 1.84894 -0.94278 1.80286 -1.03139 1.75442 -1.11881 1.70244 -1.20388 1.64809 -1.28539 1.59138 -1.36337 1.53231 -1.44016 1.46852 -1.51459 1.40354 -1.58548 1.33501 -1.654 1.26531 -1.72016 1.19088 -1.78396 1.11409 -1.84421 1.03493 -1.9021 0.952231 -1.95881 0.86835 -2.01197 0.779743 -2.06159 0.689954 -2.11003 0.596621 -2.15493 0.500926 -2.19746 0.402867 -2.23763 0.300083 -2.27543 0.196117zm138.56 -12.9355l-7.64148 82.9268 0 0 -8.33025 -1.0562 -7.92502 -1.57484 -7.70055 -2.06632 -7.1311 -2.53298 -6.73651 -2.81298 -6.52149 -3.06699 -6.13398 -3.13433 -5.75001 -3.33754 -5.54208 -3.51829 -5.16402 -3.51002 -5.13685 -3.47576 -4.76588 -3.58091 -4.74344 -3.49821 -4.37837 -3.38834 -4.36302 -3.41905 -4.17635 -3.26074 -3.99441 -3.07644 -3.9885 -3.03155 -3.63762 -2.79762 -3.6388 -2.54007 -3.29382 -2.25653 -3.12606 -2.11121 -2.96184 -1.93991 -2.6275 -1.42008 -2.29433 -1.19797 -2.14075 -0.952231 -1.63982 -0.682866 -1.31847 -0.386327 -0.824637 -0.229197 -0.506833 -0.0437129 -0.368606 -0.163037 -0.05789 0.0708857 -5.90478 -82.9268 8.74139 -0.0708857 8.35743 0.486749 8.15068 1.34565 7.77144 1.85484 7.22325 2.33805 6.84992 2.63222 6.30883 2.90395 6.11744 3.14969 5.75356 3.3718 5.39322 3.23948 5.2101 3.41315 5.03052 3.5561 4.68082 3.51593 4.67964 3.44977 4.33584 3.35526 4.34175 3.40251 4.17635 3.26074 4.01568 3.09298 4.03103 3.06463 3.70142 2.84606 3.72386 2.60505 3.40015 2.50227 3.42732 2.20809 3.1107 1.89265 2.97129 1.71189 2.65821 1.50868 2.35341 1.11527 2.22109 0.861261 1.921 0.581263 1.44843 0.440673 1.32556 0.27291 1.03375 0.0827 0 0zm-7.64148 82.9268l7.64148 -82.9268 2.27425 0.237467 2.23408 0.342614 2.19273 0.441854 2.14666 0.541094 2.10058 0.63679 2.04978 0.72776 1.9978 0.81873 1.94345 0.904974 1.88556 0.988856 1.82531 1.06919 1.76269 1.14835 1.69771 1.22396 1.62919 1.29603 1.55949 1.36573 1.48742 1.43307 1.41181 1.49805 1.33383 1.5583 1.2535 1.61738 1.16961 1.67172 1.08573 1.72607 0.997126 1.77451 0.906156 1.82294 0.812823 1.86666 0.718309 1.90801 0.619069 1.94699 0.518647 1.98362 0.415863 2.01552 0.309534 2.04623 0.202024 2.07341 0.0897886 2.09704 -0.0224471 2.11948 -0.139409 2.13839 -0.254007 2.12893 -0.365061 2.09231 -0.472571 2.05214 -0.577719 2.00961 -0.679321 1.9659 -0.778561 1.91982 -0.874257 1.8702 -0.966409 1.8194 -1.0562 1.76387 -1.14244 1.70953 -1.22632 1.65046 -1.30666 1.58902 -1.38463 1.52522 -1.46025 1.46025 -1.52995 1.3929 -1.59965 1.32084 -1.66463 1.24877 -1.72725 1.17316 -1.78632 1.09637 -1.84303 1.01603 -1.89619 0.933329 -1.94699 0.848266 -1.99425 0.762021 -2.03796 0.671051 -2.07931 0.580081 -2.1183 0.485567 -2.15256 0.389871 -2.18564 0.28945 -2.21518 0.189029 -2.23999 0.0838814 -2.2648 -0.0212657 -2.2837 -0.129957zm175.878 -126.182l-13.8936 81.9533 5.242 0.362699 2.56134 0.00945143 0.426496 -0.04135 -0.995944 0.213839 -2.04623 0.450124 -2.72674 0.828181 -3.38597 1.02312 -4.02158 1.36101 -4.28977 1.51695 -4.70799 1.654 -5.10495 1.93282 -5.30461 1.86548 -5.65668 2.10412 -5.81263 2.32387 -6.12098 2.19746 -6.23204 2.214 -6.49549 2.37231 -6.38917 2.35104 -6.7814 2.14429 -6.80385 2.24471 -6.80503 2.16083 -6.95625 2.2199 -6.91372 1.93636 -7.1949 1.95645 -7.10629 1.63037 -7.17009 1.61147 -7.21144 1.24641 -7.40401 1.18734 -7.40047 0.782106 -7.54933 0.519829 -7.67456 0.0756114 -7.9522 -0.225653 7.64148 -82.9268 1.70008 0.225653 2.46446 -0.0756114 3.03391 -0.196117 3.57973 -0.456031 3.92825 -0.53755 4.43272 -0.920333 4.73871 -0.961683 5.02225 -1.3043 5.11086 -1.30666 5.52436 -1.61029 5.56689 -1.57012 5.76301 -1.83712 5.76183 -1.91864 5.73938 -2.14429 6.04183 -2.02497 5.80081 -2.0486 5.8847 -2.214 5.77364 -2.19746 5.81263 -1.9978 5.65668 -2.10412 5.65195 -2.19155 5.45229 -1.93282 5.40267 -1.97771 5.33179 -1.84303 5.0636 -1.68708 5.12267 -1.6729 5.15812 -1.47797 5.17229 -1.42598 5.51136 -1.1897 6.17533 -0.93451 7.51152 -0.333163 9.34628 0.610799z"/></g><g><polygon class="fil1" points="627.909,134.594 724.688,435.566 639.583,459.305 542.804,158.334 "/></g><polygon class="fil2" points="174.354,223.65 245.495,452.228 390.746,378.861 482.641,424.008 592.321,429.655 666.425,395.793 595.283,178.497 503.389,198.25 461.894,206.719 334.428,155.918 254.388,170.029 "/></svg>